<svg width="41" height="31" viewBox="0 0 41 31" fill="none" xmlns="http://www.w3.org/2000/svg">
<path d="M33.8625 2.48825C31.3125 1.33825 28.5791 0.48825 25.7208 0.00491694C25.6953 3.01364e-05 25.669 0.00317937 25.6454 0.0139292C25.6218 0.024679 25.6021 0.0424975 25.5891 0.064917C25.2391 0.679917 24.8491 1.48158 24.5758 2.11492C21.5443 1.66198 18.4623 1.66198 15.4308 2.11492C15.1264 1.41302 14.783 0.728624 14.4025 0.064917C14.3896 0.0422215 14.3701 0.0239999 14.3465 0.0126838C14.323 0.00136777 14.2966 -0.00250469 14.2708 0.00158346C11.4141 0.484917 8.6808 1.33492 6.12913 2.48658C6.10718 2.49579 6.08857 2.51149 6.0758 2.53158C0.889134 10.1566 -0.532532 17.5932 0.165801 24.9366C0.167744 24.9546 0.173327 24.972 0.182209 24.9877C0.191092 25.0035 0.203088 25.0173 0.217468 25.0282C3.24479 27.2323 6.62136 28.9113 10.2058 29.9949C10.2308 30.0026 10.2575 30.0026 10.2825 29.9949C10.3075 29.9871 10.3295 29.972 10.3458 29.9516C11.1171 28.92 11.8006 27.8256 12.3891 26.6799C12.3973 26.6642 12.402 26.647 12.4029 26.6294C12.4039 26.6117 12.401 26.5941 12.3945 26.5777C12.388 26.5612 12.3781 26.5464 12.3654 26.5341C12.3527 26.5218 12.3375 26.5125 12.3208 26.5066C11.2441 26.1011 10.2009 25.6118 9.2008 25.0432C9.18283 25.033 9.16769 25.0184 9.15673 25.0009C9.14577 24.9833 9.13934 24.9633 9.13802 24.9427C9.1367 24.922 9.14053 24.9014 9.14916 24.8826C9.15779 24.8638 9.17095 24.8474 9.18747 24.8349C9.39747 24.6799 9.60747 24.5182 9.80747 24.3566C9.82547 24.342 9.84716 24.3328 9.87011 24.3298C9.89306 24.3269 9.91638 24.3304 9.93747 24.3399C16.4825 27.2799 23.5708 27.2799 30.0391 24.3399C30.0603 24.3298 30.0838 24.3259 30.1071 24.3285C30.1304 24.3312 30.1525 24.3403 30.1708 24.3549C30.3708 24.5182 30.5791 24.6799 30.7908 24.8349C30.8075 24.8471 30.8209 24.8633 30.8298 24.8819C30.8387 24.9006 30.8428 24.9211 30.8418 24.9418C30.8408 24.9624 30.8347 24.9825 30.8241 25.0002C30.8134 25.0179 30.7986 25.0327 30.7808 25.0432C29.7841 25.6166 28.7475 26.1016 27.6591 26.5049C27.6424 26.511 27.6272 26.5205 27.6145 26.533C27.6017 26.5454 27.5918 26.5604 27.5854 26.5769C27.5789 26.5935 27.576 26.6113 27.577 26.629C27.5779 26.6468 27.5826 26.6641 27.5908 26.6799C28.1908 27.8249 28.8775 28.9149 29.6325 29.9499C29.6482 29.9712 29.67 29.987 29.6951 29.9954C29.7201 30.0037 29.7472 30.0042 29.7725 29.9966C33.3631 28.916 36.7451 27.2362 39.7758 25.0282C39.7906 25.0179 39.803 25.0045 39.8122 24.989C39.8214 24.9735 39.8272 24.9562 39.8291 24.9382C40.6625 16.4482 38.4325 9.07158 33.9141 2.53492C33.9031 2.51367 33.8847 2.49711 33.8625 2.48825ZM13.3675 20.4649C11.3975 20.4649 9.77247 18.6832 9.77247 16.4982C9.77247 14.3116 11.3658 12.5316 13.3675 12.5316C15.3841 12.5316 16.9941 14.3266 16.9625 16.4982C16.9625 18.6849 15.3691 20.4649 13.3675 20.4649ZM26.6591 20.4649C24.6875 20.4649 23.0641 18.6832 23.0641 16.4982C23.0641 14.3116 24.6558 12.5316 26.6591 12.5316C28.6758 12.5316 30.2858 14.3266 30.2541 16.4982C30.2541 18.6849 28.6775 20.4649 26.6591 20.4649Z" fill="#C94097"/>
</svg>
