<svg width="44" height="29" viewBox="0 0 44 29" fill="none" xmlns="http://www.w3.org/2000/svg">
<path d="M13.5071 21.25L7.19586 27.625C6.49461 28.2625 5.55961 28.6875 4.53961 28.6875C3.55334 28.6875 2.60746 28.2957 1.91006 27.5983C1.21266 26.9009 0.820862 25.955 0.820862 24.9688V24.4375L2.94586 8.755C3.16008 6.36572 4.25984 4.14284 6.02916 2.52294C7.79847 0.90303 10.1095 0.00314193 12.5084 0H31.6334C36.6484 0 40.7496 3.84625 41.1959 8.755L43.3209 24.4375V24.9688C43.3209 25.955 42.9291 26.9009 42.2317 27.5983C41.5343 28.2957 40.5884 28.6875 39.6021 28.6875C38.5821 28.6875 37.6471 28.2625 36.9459 27.625L30.6346 21.25H13.5071ZM11.4459 4.25V8.5H7.19586V10.625H11.4459V14.875H13.5709V10.625H17.8209V8.5H13.5709V4.25H11.4459ZM31.6334 4.25C31.2107 4.25 30.8053 4.41791 30.5064 4.7168C30.2075 5.01569 30.0396 5.42106 30.0396 5.84375C30.0396 6.26644 30.2075 6.67181 30.5064 6.9707C30.8053 7.26959 31.2107 7.4375 31.6334 7.4375C32.0561 7.4375 32.4614 7.26959 32.7603 6.9707C33.0592 6.67181 33.2271 6.26644 33.2271 5.84375C33.2271 5.42106 33.0592 5.01569 32.7603 4.7168C32.4614 4.41791 32.0561 4.25 31.6334 4.25ZM27.9146 7.96875C27.4919 7.96875 27.0866 8.13666 26.7877 8.43555C26.4888 8.73444 26.3209 9.13981 26.3209 9.5625C26.3209 9.98519 26.4888 10.3906 26.7877 10.6895C27.0866 10.9883 27.4919 11.1562 27.9146 11.1562C28.3373 11.1562 28.7427 10.9883 29.0416 10.6895C29.3405 10.3906 29.5084 9.98519 29.5084 9.5625C29.5084 9.13981 29.3405 8.73444 29.0416 8.43555C28.7427 8.13666 28.3373 7.96875 27.9146 7.96875ZM35.3521 7.96875C34.9294 7.96875 34.5241 8.13666 34.2252 8.43555C33.9263 8.73444 33.7584 9.13981 33.7584 9.5625C33.7584 9.98519 33.9263 10.3906 34.2252 10.6895C34.5241 10.9883 34.9294 11.1562 35.3521 11.1562C35.7748 11.1562 36.1802 10.9883 36.4791 10.6895C36.778 10.3906 36.9459 9.98519 36.9459 9.5625C36.9459 9.13981 36.778 8.73444 36.4791 8.43555C36.1802 8.13666 35.7748 7.96875 35.3521 7.96875ZM31.6334 11.6875C31.2107 11.6875 30.8053 11.8554 30.5064 12.1543C30.2075 12.4532 30.0396 12.8586 30.0396 13.2812C30.0396 13.7039 30.2075 14.1093 30.5064 14.4082C30.8053 14.7071 31.2107 14.875 31.6334 14.875C32.0561 14.875 32.4614 14.7071 32.7603 14.4082C33.0592 14.1093 33.2271 13.7039 33.2271 13.2812C33.2271 12.8586 33.0592 12.4532 32.7603 12.1543C32.4614 11.8554 32.0561 11.6875 31.6334 11.6875Z" fill="#C94097"/>
</svg>
