<svg width="38" height="31" viewBox="0 0 38 31" fill="none" xmlns="http://www.w3.org/2000/svg">
<path d="M37.8208 3.62708C36.43 4.24001 34.936 4.65415 33.3653 4.84134C34.9859 3.87688 36.1984 2.35892 36.7765 0.570717C35.2539 1.47022 33.5874 2.10336 31.8496 2.44264C30.6809 1.20165 29.133 0.379096 27.4462 0.102694C25.7594 -0.173707 24.028 0.111503 22.5208 0.914045C21.0136 1.71659 19.8151 2.99156 19.1111 4.54101C18.4072 6.09047 18.2373 7.82772 18.6278 9.48304C15.5426 9.32897 12.5244 8.53142 9.76909 7.14216C7.01381 5.75289 4.58303 3.80294 2.63451 1.41888C1.96826 2.56191 1.58517 3.88716 1.58517 5.29856C1.58443 6.56913 1.89903 7.82025 2.50106 8.9409C3.10309 10.0615 3.97394 11.0171 5.03634 11.7227C3.80424 11.6837 2.59932 11.3526 1.52188 10.7569V10.8563C1.52175 12.6384 2.14154 14.3656 3.27608 15.7449C4.41062 17.1241 5.99003 18.0706 7.74632 18.4235C6.60334 18.7312 5.40501 18.7765 4.24184 18.5561C4.73736 20.0894 5.70259 21.4302 7.00239 22.3909C8.3022 23.3515 9.87152 23.8839 11.4906 23.9134C8.74208 26.0593 5.34763 27.2233 1.85333 27.2182C1.23436 27.2184 0.615902 27.1824 0.00115967 27.1106C3.54807 29.3787 7.67693 30.5824 11.8937 30.5777C26.1681 30.5777 33.9716 18.8194 33.9716 8.62163C33.9716 8.29031 33.9633 7.95569 33.9483 7.62437C35.4661 6.53265 36.7763 5.18077 37.8175 3.63205L37.8208 3.62708Z" fill="#C94097"/>
</svg>
